<svg xmlns="http://www.w3.org/2000/svg" version="1.2" baseProfile="tiny-ps" viewBox="0 0 800 800" width="800" height="800">
  <title>Mirai Stack</title>
  <desc>Mirai Stack - Software Engineering &amp; Architecture Studio logo</desc>
  <rect x="0" y="0" width="800" height="800" fill="#08130F"/>
  <g>
    <polygon points="-75.0,-150.0 -10.0,-112.5 -10.0,-37.5 -75.0,0.0 -140.0,-37.5 -140.0,-112.5" fill="none" stroke="#1c3d36" stroke-width="1" opacity="0.55"/>
    <polygon points="54.9,-150.0 119.9,-112.5 119.9,-37.5 54.9,0.0 -10.0,-37.5 -10.0,-112.5" fill="none" stroke="#1c3d36" stroke-width="1" opacity="0.55"/>
    <polygon points="184.8,-150.0 249.8,-112.5 249.8,-37.5 184.8,0.0 119.9,-37.5 119.9,-112.5" fill="none" stroke="#1c3d36" stroke-width="1" opacity="0.55"/>
    <polygon points="314.7,-150.0 379.7,-112.5 379.7,-37.5 314.7,0.0 249.8,-37.5 249.8,-112.5" fill="none" stroke="#1c3d36" stroke-width="1" opacity="0.55"/>
    <polygon points="444.6,-150.0 509.6,-112.5 509.6,-37.5 444.6,0.0 379.7,-37.5 379.7,-112.5" fill="none" stroke="#1c3d36" stroke-width="1" opacity="0.55"/>
    <polygon points="574.5,-150.0 639.5,-112.5 639.5,-37.5 574.5,0.0 509.6,-37.5 509.6,-112.5" fill="none" stroke="#1c3d36" stroke-width="1" opacity="0.55"/>
    <polygon points="704.4,-150.0 769.4,-112.5 769.4,-37.5 704.4,0.0 639.5,-37.5 639.5,-112.5" fill="none" stroke="#1c3d36" stroke-width="1" opacity="0.55"/>
    <polygon points="834.3,-150.0 899.3,-112.5 899.3,-37.5 834.3,0.0 769.4,-37.5 769.4,-112.5" fill="none" stroke="#1c3d36" stroke-width="1" opacity="0.55"/>
    <polygon points="-10.0,-37.5 54.9,0.0 54.9,75.0 -10.0,112.5 -75.0,75.0 -75.0,-0.0" fill="none" stroke="#1c3d36" stroke-width="1" opacity="0.55"/>
    <polygon points="119.9,-37.5 184.8,0.0 184.8,75.0 119.9,112.5 54.9,75.0 54.9,-0.0" fill="none" stroke="#1c3d36" stroke-width="1" opacity="0.55"/>
    <polygon points="249.8,-37.5 314.7,0.0 314.7,75.0 249.8,112.5 184.8,75.0 184.8,-0.0" fill="none" stroke="#1c3d36" stroke-width="1" opacity="0.55"/>
    <polygon points="379.7,-37.5 444.6,0.0 444.6,75.0 379.7,112.5 314.7,75.0 314.7,-0.0" fill="none" stroke="#1c3d36" stroke-width="1" opacity="0.55"/>
    <polygon points="509.6,-37.5 574.5,0.0 574.5,75.0 509.6,112.5 444.6,75.0 444.6,-0.0" fill="none" stroke="#1c3d36" stroke-width="1" opacity="0.55"/>
    <polygon points="639.5,-37.5 704.4,0.0 704.4,75.0 639.5,112.5 574.5,75.0 574.5,-0.0" fill="none" stroke="#1c3d36" stroke-width="1" opacity="0.55"/>
    <polygon points="769.4,-37.5 834.3,0.0 834.3,75.0 769.4,112.5 704.4,75.0 704.4,-0.0" fill="none" stroke="#1c3d36" stroke-width="1" opacity="0.55"/>
    <polygon points="-75.0,75.0 -10.0,112.5 -10.0,187.5 -75.0,225.0 -140.0,187.5 -140.0,112.5" fill="none" stroke="#1c3d36" stroke-width="1" opacity="0.55"/>
    <polygon points="54.9,75.0 119.9,112.5 119.9,187.5 54.9,225.0 -10.0,187.5 -10.0,112.5" fill="none" stroke="#1c3d36" stroke-width="1" opacity="0.55"/>
    <polygon points="184.8,75.0 249.8,112.5 249.8,187.5 184.8,225.0 119.9,187.5 119.9,112.5" fill="none" stroke="#1c3d36" stroke-width="1" opacity="0.55"/>
    <polygon points="314.7,75.0 379.7,112.5 379.7,187.5 314.7,225.0 249.8,187.5 249.8,112.5" fill="none" stroke="#1c3d36" stroke-width="1" opacity="0.55"/>
    <polygon points="444.6,75.0 509.6,112.5 509.6,187.5 444.6,225.0 379.7,187.5 379.7,112.5" fill="none" stroke="#1c3d36" stroke-width="1" opacity="0.55"/>
    <polygon points="574.5,75.0 639.5,112.5 639.5,187.5 574.5,225.0 509.6,187.5 509.6,112.5" fill="none" stroke="#1c3d36" stroke-width="1" opacity="0.55"/>
    <polygon points="704.4,75.0 769.4,112.5 769.4,187.5 704.4,225.0 639.5,187.5 639.5,112.5" fill="none" stroke="#1c3d36" stroke-width="1" opacity="0.55"/>
    <polygon points="834.3,75.0 899.3,112.5 899.3,187.5 834.3,225.0 769.4,187.5 769.4,112.5" fill="none" stroke="#1c3d36" stroke-width="1" opacity="0.55"/>
    <polygon points="-10.0,187.5 54.9,225.0 54.9,300.0 -10.0,337.5 -75.0,300.0 -75.0,225.0" fill="none" stroke="#1c3d36" stroke-width="1" opacity="0.55"/>
    <polygon points="119.9,187.5 184.8,225.0 184.8,300.0 119.9,337.5 54.9,300.0 54.9,225.0" fill="none" stroke="#1c3d36" stroke-width="1" opacity="0.55"/>
    <polygon points="249.8,187.5 314.7,225.0 314.7,300.0 249.8,337.5 184.8,300.0 184.8,225.0" fill="none" stroke="#1c3d36" stroke-width="1" opacity="0.55"/>
    <polygon points="379.7,187.5 444.6,225.0 444.6,300.0 379.7,337.5 314.7,300.0 314.7,225.0" fill="none" stroke="#1c3d36" stroke-width="1" opacity="0.55"/>
    <polygon points="509.6,187.5 574.5,225.0 574.5,300.0 509.6,337.5 444.6,300.0 444.6,225.0" fill="none" stroke="#1c3d36" stroke-width="1" opacity="0.55"/>
    <polygon points="639.5,187.5 704.4,225.0 704.4,300.0 639.5,337.5 574.5,300.0 574.5,225.0" fill="none" stroke="#1c3d36" stroke-width="1" opacity="0.55"/>
    <polygon points="769.4,187.5 834.3,225.0 834.3,300.0 769.4,337.5 704.4,300.0 704.4,225.0" fill="none" stroke="#1c3d36" stroke-width="1" opacity="0.55"/>
    <polygon points="-75.0,300.0 -10.0,337.5 -10.0,412.5 -75.0,450.0 -140.0,412.5 -140.0,337.5" fill="none" stroke="#1c3d36" stroke-width="1" opacity="0.55"/>
    <polygon points="54.9,300.0 119.9,337.5 119.9,412.5 54.9,450.0 -10.0,412.5 -10.0,337.5" fill="none" stroke="#1c3d36" stroke-width="1" opacity="0.55"/>
    <polygon points="184.8,300.0 249.8,337.5 249.8,412.5 184.8,450.0 119.9,412.5 119.9,337.5" fill="none" stroke="#1c3d36" stroke-width="1" opacity="0.55"/>
    <polygon points="314.7,300.0 379.7,337.5 379.7,412.5 314.7,450.0 249.8,412.5 249.8,337.5" fill="none" stroke="#1c3d36" stroke-width="1" opacity="0.55"/>
    <polygon points="444.6,300.0 509.6,337.5 509.6,412.5 444.6,450.0 379.7,412.5 379.7,337.5" fill="none" stroke="#1c3d36" stroke-width="1" opacity="0.55"/>
    <polygon points="574.5,300.0 639.5,337.5 639.5,412.5 574.5,450.0 509.6,412.5 509.6,337.5" fill="none" stroke="#1c3d36" stroke-width="1" opacity="0.55"/>
    <polygon points="704.4,300.0 769.4,337.5 769.4,412.5 704.4,450.0 639.5,412.5 639.5,337.5" fill="none" stroke="#1c3d36" stroke-width="1" opacity="0.55"/>
    <polygon points="834.3,300.0 899.3,337.5 899.3,412.5 834.3,450.0 769.4,412.5 769.4,337.5" fill="none" stroke="#1c3d36" stroke-width="1" opacity="0.55"/>
    <polygon points="-10.0,412.5 54.9,450.0 54.9,525.0 -10.0,562.5 -75.0,525.0 -75.0,450.0" fill="none" stroke="#1c3d36" stroke-width="1" opacity="0.55"/>
    <polygon points="119.9,412.5 184.8,450.0 184.8,525.0 119.9,562.5 54.9,525.0 54.9,450.0" fill="none" stroke="#1c3d36" stroke-width="1" opacity="0.55"/>
    <polygon points="249.8,412.5 314.7,450.0 314.7,525.0 249.8,562.5 184.8,525.0 184.8,450.0" fill="none" stroke="#1c3d36" stroke-width="1" opacity="0.55"/>
    <polygon points="379.7,412.5 444.6,450.0 444.6,525.0 379.7,562.5 314.7,525.0 314.7,450.0" fill="none" stroke="#1c3d36" stroke-width="1" opacity="0.55"/>
    <polygon points="509.6,412.5 574.5,450.0 574.5,525.0 509.6,562.5 444.6,525.0 444.6,450.0" fill="none" stroke="#1c3d36" stroke-width="1" opacity="0.55"/>
    <polygon points="639.5,412.5 704.4,450.0 704.4,525.0 639.5,562.5 574.5,525.0 574.5,450.0" fill="none" stroke="#1c3d36" stroke-width="1" opacity="0.55"/>
    <polygon points="769.4,412.5 834.3,450.0 834.3,525.0 769.4,562.5 704.4,525.0 704.4,450.0" fill="none" stroke="#1c3d36" stroke-width="1" opacity="0.55"/>
    <polygon points="-75.0,525.0 -10.0,562.5 -10.0,637.5 -75.0,675.0 -140.0,637.5 -140.0,562.5" fill="none" stroke="#1c3d36" stroke-width="1" opacity="0.55"/>
    <polygon points="54.9,525.0 119.9,562.5 119.9,637.5 54.9,675.0 -10.0,637.5 -10.0,562.5" fill="none" stroke="#1c3d36" stroke-width="1" opacity="0.55"/>
    <polygon points="184.8,525.0 249.8,562.5 249.8,637.5 184.8,675.0 119.9,637.5 119.9,562.5" fill="none" stroke="#1c3d36" stroke-width="1" opacity="0.55"/>
    <polygon points="314.7,525.0 379.7,562.5 379.7,637.5 314.7,675.0 249.8,637.5 249.8,562.5" fill="none" stroke="#1c3d36" stroke-width="1" opacity="0.55"/>
    <polygon points="444.6,525.0 509.6,562.5 509.6,637.5 444.6,675.0 379.7,637.5 379.7,562.5" fill="none" stroke="#1c3d36" stroke-width="1" opacity="0.55"/>
    <polygon points="574.5,525.0 639.5,562.5 639.5,637.5 574.5,675.0 509.6,637.5 509.6,562.5" fill="none" stroke="#1c3d36" stroke-width="1" opacity="0.55"/>
    <polygon points="704.4,525.0 769.4,562.5 769.4,637.5 704.4,675.0 639.5,637.5 639.5,562.5" fill="none" stroke="#1c3d36" stroke-width="1" opacity="0.55"/>
    <polygon points="834.3,525.0 899.3,562.5 899.3,637.5 834.3,675.0 769.4,637.5 769.4,562.5" fill="none" stroke="#1c3d36" stroke-width="1" opacity="0.55"/>
    <polygon points="-10.0,637.5 54.9,675.0 54.9,750.0 -10.0,787.5 -75.0,750.0 -75.0,675.0" fill="none" stroke="#1c3d36" stroke-width="1" opacity="0.55"/>
    <polygon points="119.9,637.5 184.8,675.0 184.8,750.0 119.9,787.5 54.9,750.0 54.9,675.0" fill="none" stroke="#1c3d36" stroke-width="1" opacity="0.55"/>
    <polygon points="249.8,637.5 314.7,675.0 314.7,750.0 249.8,787.5 184.8,750.0 184.8,675.0" fill="none" stroke="#1c3d36" stroke-width="1" opacity="0.55"/>
    <polygon points="379.7,637.5 444.6,675.0 444.6,750.0 379.7,787.5 314.7,750.0 314.7,675.0" fill="none" stroke="#1c3d36" stroke-width="1" opacity="0.55"/>
    <polygon points="509.6,637.5 574.5,675.0 574.5,750.0 509.6,787.5 444.6,750.0 444.6,675.0" fill="none" stroke="#1c3d36" stroke-width="1" opacity="0.55"/>
    <polygon points="639.5,637.5 704.4,675.0 704.4,750.0 639.5,787.5 574.5,750.0 574.5,675.0" fill="none" stroke="#1c3d36" stroke-width="1" opacity="0.55"/>
    <polygon points="769.4,637.5 834.3,675.0 834.3,750.0 769.4,787.5 704.4,750.0 704.4,675.0" fill="none" stroke="#1c3d36" stroke-width="1" opacity="0.55"/>
    <polygon points="-75.0,750.0 -10.0,787.5 -10.0,862.5 -75.0,900.0 -140.0,862.5 -140.0,787.5" fill="none" stroke="#1c3d36" stroke-width="1" opacity="0.55"/>
    <polygon points="54.9,750.0 119.9,787.5 119.9,862.5 54.9,900.0 -10.0,862.5 -10.0,787.5" fill="none" stroke="#1c3d36" stroke-width="1" opacity="0.55"/>
    <polygon points="184.8,750.0 249.8,787.5 249.8,862.5 184.8,900.0 119.9,862.5 119.9,787.5" fill="none" stroke="#1c3d36" stroke-width="1" opacity="0.55"/>
    <polygon points="314.7,750.0 379.7,787.5 379.7,862.5 314.7,900.0 249.8,862.5 249.8,787.5" fill="none" stroke="#1c3d36" stroke-width="1" opacity="0.55"/>
    <polygon points="444.6,750.0 509.6,787.5 509.6,862.5 444.6,900.0 379.7,862.5 379.7,787.5" fill="none" stroke="#1c3d36" stroke-width="1" opacity="0.55"/>
    <polygon points="574.5,750.0 639.5,787.5 639.5,862.5 574.5,900.0 509.6,862.5 509.6,787.5" fill="none" stroke="#1c3d36" stroke-width="1" opacity="0.55"/>
    <polygon points="704.4,750.0 769.4,787.5 769.4,862.5 704.4,900.0 639.5,862.5 639.5,787.5" fill="none" stroke="#1c3d36" stroke-width="1" opacity="0.55"/>
    <polygon points="834.3,750.0 899.3,787.5 899.3,862.5 834.3,900.0 769.4,862.5 769.4,787.5" fill="none" stroke="#1c3d36" stroke-width="1" opacity="0.55"/>
  </g>
  <g>
    <circle cx="170" cy="100" r="8.3" fill="#2fe6d1" opacity="0.10"/>
    <circle cx="170" cy="100" r="3.2" fill="#5ff2df" opacity="0.85"/>
    <circle cx="398" cy="80" r="6.8" fill="#2fe6d1" opacity="0.10"/>
    <circle cx="398" cy="80" r="2.6" fill="#5ff2df" opacity="0.85"/>
    <circle cx="640" cy="140" r="7.8" fill="#2fe6d1" opacity="0.10"/>
    <circle cx="640" cy="140" r="3.0" fill="#5ff2df" opacity="0.85"/>
    <circle cx="250" cy="380" r="6.2" fill="#2fe6d1" opacity="0.10"/>
    <circle cx="250" cy="380" r="2.4" fill="#5ff2df" opacity="0.85"/>
    <circle cx="700" cy="398" r="8.8" fill="#2fe6d1" opacity="0.10"/>
    <circle cx="700" cy="398" r="3.4" fill="#5ff2df" opacity="0.85"/>
    <circle cx="720" cy="650" r="7.3" fill="#2fe6d1" opacity="0.10"/>
    <circle cx="720" cy="650" r="2.8" fill="#5ff2df" opacity="0.85"/>
    <circle cx="500" cy="682" r="6.8" fill="#2fe6d1" opacity="0.10"/>
    <circle cx="500" cy="682" r="2.6" fill="#5ff2df" opacity="0.85"/>
    <circle cx="115" cy="500" r="6.2" fill="#2fe6d1" opacity="0.10"/>
    <circle cx="115" cy="500" r="2.4" fill="#5ff2df" opacity="0.85"/>
  </g>
  <g>
    <polygon points="756.0,29.0 762.0,35.0 756.0,41.0 750.0,35.0" fill="none" stroke="#2fe6d1" stroke-width="1.4" opacity="0.55"/>
    <polygon points="46.0,756.0 52.0,762.0 46.0,768.0 40.0,762.0" fill="none" stroke="#2fe6d1" stroke-width="1.4" opacity="0.55"/>
  </g>
  <g>
    <circle cx="400" cy="345" r="180" fill="#1c6e63" opacity="0.28"/>
    <circle cx="400" cy="345" r="120" fill="#2a9686" opacity="0.30"/>
    <circle cx="400" cy="345" r="70" fill="#3fc7b6" opacity="0.28"/>
  </g>
  <g>
    <polygon points="400.0,268.0 453.7,299.0 453.7,361.0 400.0,392.0 346.3,361.0 346.3,299.0" fill="none" stroke="#5ff2df" stroke-width="4" stroke-linejoin="round"/>
    <line x1="400.0" y1="268.0" x2="400.0" y2="330.0" stroke="#5ff2df" stroke-width="4" stroke-linecap="round"/>
    <line x1="346.3" y1="361.0" x2="400.0" y2="330.0" stroke="#5ff2df" stroke-width="4" stroke-linecap="round"/>
    <line x1="453.7" y1="361.0" x2="400.0" y2="330.0" stroke="#5ff2df" stroke-width="4" stroke-linecap="round"/>
    <circle cx="400.0" cy="268.0" r="5.5" fill="#eafffb"/>
    <circle cx="400.0" cy="268.0" r="10" fill="#5ff2df" opacity="0.25"/>
    <circle cx="453.7" cy="299.0" r="5.5" fill="#eafffb"/>
    <circle cx="453.7" cy="299.0" r="10" fill="#5ff2df" opacity="0.25"/>
    <circle cx="453.7" cy="361.0" r="5.5" fill="#eafffb"/>
    <circle cx="453.7" cy="361.0" r="10" fill="#5ff2df" opacity="0.25"/>
    <circle cx="400.0" cy="392.0" r="5.5" fill="#eafffb"/>
    <circle cx="400.0" cy="392.0" r="10" fill="#5ff2df" opacity="0.25"/>
    <circle cx="346.3" cy="361.0" r="5.5" fill="#eafffb"/>
    <circle cx="346.3" cy="361.0" r="10" fill="#5ff2df" opacity="0.25"/>
    <circle cx="346.3" cy="299.0" r="5.5" fill="#eafffb"/>
    <circle cx="346.3" cy="299.0" r="10" fill="#5ff2df" opacity="0.25"/>
    <circle cx="400.0" cy="330.0" r="5.5" fill="#eafffb"/>
    <circle cx="400.0" cy="330.0" r="10" fill="#5ff2df" opacity="0.25"/>
  </g>
  <g fill="#FFFFFF">
    <path d="M150.5 466.9H166.3L177.3 492.6L188.3 466.9H204.1V515.0H192.3V479.8L181.3 505.8H173.4L162.3 479.8V515.0H150.5Z M219.2 466.9H231.6V515.0H219.2Z M264.4 488.2Q268.3 488.2 270.0 486.8Q271.7 485.3 271.7 482.0Q271.7 478.7 270.0 477.3Q268.3 475.9 264.4 475.9H259.2V488.2ZM259.2 496.8V515.0H246.8V466.9H265.7Q275.2 466.9 279.7 470.1Q284.1 473.3 284.1 480.2Q284.1 484.9 281.8 488.0Q279.5 491.1 274.8 492.5Q277.4 493.1 279.4 495.1Q281.4 497.2 283.5 501.3L290.2 515.0H277.0L271.1 503.0Q269.4 499.4 267.6 498.1Q265.7 496.8 262.7 496.8Z M329.8 506.2H310.4L307.3 515.0H294.9L312.7 466.9H327.5L345.3 515.0H332.8ZM313.5 497.3H326.7L320.1 478.2Z M354.7 466.9H367.1V515.0H354.7Z M439.8 468.4V478.6Q435.9 476.8 432.1 475.9Q428.3 475.0 425.0 475.0Q420.5 475.0 418.4 476.2Q416.3 477.5 416.3 480.0Q416.3 482.0 417.7 483.0Q419.2 484.1 422.9 484.9L428.2 486.0Q436.2 487.6 439.6 490.9Q443.0 494.1 443.0 500.2Q443.0 508.2 438.3 512.1Q433.6 515.9 423.9 515.9Q419.3 515.9 414.7 515.1Q410.1 514.2 405.5 512.5V502.0Q410.1 504.5 414.4 505.7Q418.7 506.9 422.7 506.9Q426.7 506.9 428.9 505.6Q431.0 504.2 431.0 501.7Q431.0 499.5 429.6 498.2Q428.1 497.0 423.7 496.1L418.9 495.0Q411.7 493.4 408.4 490.1Q405.0 486.7 405.0 480.9Q405.0 473.8 409.7 469.9Q414.3 466.0 423.0 466.0Q427.0 466.0 431.2 466.6Q435.4 467.2 439.8 468.4Z M451.2 466.9H495.5V476.3H479.5V515.0H467.1V476.3H451.2Z"/>
  </g>
  <g fill="#5FEDE0">
    <path d="M534.1 506.2H514.7L511.6 515.0H499.2L517.0 466.9H531.8L549.6 515.0H537.1ZM517.8 497.3H531.0L524.4 478.2Z M597.1 512.4Q593.7 514.1 590.0 515.0Q586.3 515.9 582.3 515.9Q570.3 515.9 563.2 509.2Q556.2 502.5 556.2 491.0Q556.2 479.5 563.2 472.7Q570.3 466.0 582.3 466.0Q586.3 466.0 590.0 466.9Q593.7 467.8 597.1 469.6V479.6Q593.7 477.2 590.3 476.1Q587.0 475.0 583.3 475.0Q576.7 475.0 572.8 479.3Q569.0 483.5 569.0 491.0Q569.0 498.4 572.8 502.7Q576.7 506.9 583.3 506.9Q587.0 506.9 590.3 505.8Q593.7 504.8 597.1 502.4Z M610.4 466.9H622.8V484.4L640.7 466.9H655.1L632.0 489.7L657.5 515.0H642.0L622.8 496.1V515.0H610.4Z"/>
  </g>
  <line x1="253" y1="546" x2="547" y2="546" stroke="#3a8f83" stroke-width="1.5" opacity="0.8"/>
  <g fill="#8FC9C2" opacity="0.9">
    <path d="M190.0 569.0V570.8Q189.3 570.5 188.7 570.3Q188.0 570.2 187.5 570.2Q186.7 570.2 186.3 570.4Q186.0 570.6 186.0 571.0Q186.0 571.3 186.2 571.5Q186.5 571.7 187.1 571.8L188.0 572.0Q189.4 572.3 190.0 572.9Q190.5 573.4 190.5 574.5Q190.5 575.8 189.7 576.5Q188.9 577.2 187.3 577.2Q186.5 577.2 185.7 577.0Q184.9 576.9 184.1 576.6V574.8Q184.9 575.2 185.6 575.4Q186.4 575.6 187.1 575.6Q187.8 575.6 188.1 575.4Q188.5 575.2 188.5 574.7Q188.5 574.3 188.2 574.1Q188.0 573.9 187.2 573.8L186.4 573.6Q185.2 573.3 184.6 572.7Q184.0 572.2 184.0 571.2Q184.0 569.9 184.8 569.3Q185.6 568.6 187.1 568.6Q187.8 568.6 188.5 568.7Q189.2 568.8 190.0 569.0Z M198.8 570.2Q197.8 570.2 197.3 570.9Q196.7 571.6 196.7 572.9Q196.7 574.2 197.3 574.9Q197.8 575.6 198.8 575.6Q199.7 575.6 200.3 574.9Q200.8 574.2 200.8 572.9Q200.8 571.6 200.3 570.9Q199.7 570.2 198.8 570.2ZM198.8 568.6Q200.8 568.6 201.9 569.7Q203.0 570.9 203.0 572.9Q203.0 574.9 201.9 576.0Q200.8 577.2 198.8 577.2Q196.8 577.2 195.7 576.0Q194.5 574.9 194.5 572.9Q194.5 570.9 195.7 569.7Q196.8 568.6 198.8 568.6Z M207.2 568.8H212.9V570.4H209.3V571.9H212.7V573.5H209.3V577.0H207.2Z M216.5 568.8H224.1V570.4H221.4V577.0H219.3V570.4H216.5Z M227.1 568.8H229.2L230.6 574.7L232.0 568.8H234.1L235.5 574.7L236.9 568.8H238.9L237.0 577.0H234.5L233.0 570.7L231.5 577.0H229.1Z M247.9 575.5H244.6L244.1 577.0H241.9L245.0 568.8H247.5L250.6 577.0H248.4ZM245.1 574.0H247.4L246.2 570.7Z M257.3 572.4Q257.9 572.4 258.2 572.2Q258.5 571.9 258.5 571.4Q258.5 570.8 258.2 570.5Q257.9 570.3 257.3 570.3H256.4V572.4ZM256.4 573.9V577.0H254.2V568.8H257.5Q259.1 568.8 259.9 569.3Q260.6 569.9 260.6 571.0Q260.6 571.9 260.2 572.4Q259.8 572.9 259.1 573.1Q259.5 573.2 259.8 573.6Q260.2 573.9 260.5 574.7L261.7 577.0H259.4L258.4 575.0Q258.1 574.3 257.8 574.1Q257.5 573.9 257.0 573.9Z M265.5 568.8H271.3V570.4H267.7V571.9H271.1V573.5H267.7V575.4H271.4V577.0H265.5Z M282.1 568.8H287.8V570.4H284.2V571.9H287.6V573.5H284.2V575.4H287.9V577.0H282.1Z M292.4 568.8H294.8L297.8 574.4V568.8H299.8V577.0H297.4L294.4 571.4V577.0H292.4Z M311.9 576.4Q311.1 576.8 310.2 577.0Q309.4 577.2 308.4 577.2Q306.4 577.2 305.2 576.0Q304.0 574.9 304.0 572.9Q304.0 570.9 305.2 569.8Q306.4 568.6 308.6 568.6Q309.4 568.6 310.1 568.8Q310.9 568.9 311.6 569.2V570.9Q310.9 570.5 310.2 570.3Q309.5 570.2 308.8 570.2Q307.6 570.2 306.9 570.9Q306.2 571.6 306.2 572.9Q306.2 574.2 306.8 574.9Q307.5 575.6 308.7 575.6Q309.1 575.6 309.3 575.6Q309.6 575.5 309.8 575.4V573.8H308.6V572.4H311.9Z M316.3 568.8H318.5V577.0H316.3Z M323.1 568.8H325.5L328.5 574.4V568.8H330.5V577.0H328.1L325.2 571.4V577.0H323.1Z M335.2 568.8H340.9V570.4H337.3V571.9H340.7V573.5H337.3V575.4H341.0V577.0H335.2Z M345.5 568.8H351.2V570.4H347.6V571.9H351.0V573.5H347.6V575.4H351.4V577.0H345.5Z M358.9 572.4Q359.5 572.4 359.8 572.2Q360.1 571.9 360.1 571.4Q360.1 570.8 359.8 570.5Q359.5 570.3 358.9 570.3H358.0V572.4ZM358.0 573.9V577.0H355.8V568.8H359.1Q360.7 568.8 361.5 569.3Q362.2 569.9 362.2 571.0Q362.2 571.9 361.8 572.4Q361.4 572.9 360.6 573.1Q361.1 573.2 361.4 573.6Q361.8 573.9 362.1 574.7L363.3 577.0H361.0L360.0 575.0Q359.7 574.3 359.4 574.1Q359.1 573.9 358.6 573.9Z M367.1 568.8H369.3V577.0H367.1Z M373.9 568.8H376.3L379.3 574.4V568.8H381.3V577.0H378.9L376.0 571.4V577.0H373.9Z M393.4 576.4Q392.6 576.8 391.8 577.0Q390.9 577.2 390.0 577.2Q387.9 577.2 386.7 576.0Q385.5 574.9 385.5 572.9Q385.5 570.9 386.7 569.8Q388.0 568.6 390.1 568.6Q390.9 568.6 391.7 568.8Q392.4 568.9 393.1 569.2V570.9Q392.4 570.5 391.7 570.3Q391.0 570.2 390.4 570.2Q389.1 570.2 388.4 570.9Q387.7 571.6 387.7 572.9Q387.7 574.2 388.4 574.9Q389.0 575.6 390.3 575.6Q390.6 575.6 390.9 575.6Q391.2 575.5 391.4 575.4V573.8H390.1V572.4H393.4Z M407.5 571.5 409.7 574.0Q410.0 573.6 410.2 573.1Q410.3 572.7 410.3 572.1H412.1Q412.0 573.1 411.7 573.8Q411.4 574.6 410.8 575.2L412.4 577.0H410.1L409.5 576.4Q409.0 576.8 408.3 577.0Q407.7 577.2 407.0 577.2Q405.5 577.2 404.6 576.4Q403.7 575.6 403.7 574.4Q403.7 573.6 404.1 573.0Q404.5 572.4 405.4 571.8Q405.2 571.5 405.1 571.2Q405.0 570.9 405.0 570.6Q405.0 569.7 405.7 569.2Q406.4 568.6 407.5 568.6Q408.0 568.6 408.6 568.7Q409.1 568.8 409.7 568.9V570.5Q409.2 570.2 408.7 570.1Q408.3 569.9 407.8 569.9Q407.4 569.9 407.2 570.1Q406.9 570.3 406.9 570.6Q406.9 570.8 407.1 571.0Q407.2 571.2 407.5 571.5ZM406.4 572.9Q406.0 573.2 405.8 573.5Q405.6 573.8 405.6 574.2Q405.6 574.8 406.1 575.3Q406.6 575.7 407.2 575.7Q407.6 575.7 407.9 575.6Q408.2 575.5 408.5 575.3Z M427.8 575.5H424.4L423.9 577.0H421.8L424.8 568.8H427.4L430.4 577.0H428.3ZM425.0 574.0H427.2L426.1 570.7Z M437.1 572.4Q437.8 572.4 438.1 572.2Q438.4 571.9 438.4 571.4Q438.4 570.8 438.1 570.5Q437.8 570.3 437.1 570.3H436.2V572.4ZM436.2 573.9V577.0H434.1V568.8H437.3Q439.0 568.8 439.7 569.3Q440.5 569.9 440.5 571.0Q440.5 571.9 440.1 572.4Q439.7 572.9 438.9 573.1Q439.3 573.2 439.7 573.6Q440.0 573.9 440.4 574.7L441.5 577.0H439.3L438.3 575.0Q438.0 574.3 437.7 574.1Q437.3 573.9 436.8 573.9Z M451.9 576.5Q451.4 576.9 450.7 577.0Q450.1 577.2 449.4 577.2Q447.3 577.2 446.1 576.0Q444.9 574.9 444.9 572.9Q444.9 570.9 446.1 569.8Q447.3 568.6 449.4 568.6Q450.1 568.6 450.7 568.8Q451.4 568.9 451.9 569.2V570.9Q451.3 570.5 450.8 570.3Q450.2 570.2 449.6 570.2Q448.4 570.2 447.8 570.9Q447.1 571.6 447.1 572.9Q447.1 574.2 447.8 574.9Q448.4 575.6 449.6 575.6Q450.2 575.6 450.8 575.4Q451.3 575.2 451.9 574.8Z M456.3 568.8H458.4V571.9H461.6V568.8H463.7V577.0H461.6V573.5H458.4V577.0H456.3Z M468.4 568.8H470.5V577.0H468.4Z M474.2 568.8H481.8V570.4H479.0V577.0H476.9V570.4H474.2Z M485.5 568.8H491.2V570.4H487.6V571.9H491.0V573.5H487.6V575.4H491.3V577.0H485.5Z M502.3 576.5Q501.7 576.9 501.1 577.0Q500.5 577.2 499.8 577.2Q497.7 577.2 496.5 576.0Q495.3 574.9 495.3 572.9Q495.3 570.9 496.5 569.8Q497.7 568.6 499.8 568.6Q500.5 568.6 501.1 568.8Q501.7 568.9 502.3 569.2V570.9Q501.7 570.5 501.2 570.3Q500.6 570.2 499.9 570.2Q498.8 570.2 498.2 570.9Q497.5 571.6 497.5 572.9Q497.5 574.2 498.2 574.9Q498.8 575.6 499.9 575.6Q500.6 575.6 501.2 575.4Q501.7 575.2 502.3 574.8Z M505.7 568.8H513.3V570.4H510.6V577.0H508.4V570.4H505.7Z M517.0 568.8H519.1V573.7Q519.1 574.7 519.4 575.2Q519.8 575.6 520.5 575.6Q521.3 575.6 521.6 575.2Q522.0 574.7 522.0 573.7V568.8H524.1V573.7Q524.1 575.4 523.2 576.3Q522.3 577.2 520.5 577.2Q518.7 577.2 517.9 576.3Q517.0 575.4 517.0 573.7Z M531.8 572.4Q532.4 572.4 532.7 572.2Q533.0 571.9 533.0 571.4Q533.0 570.8 532.7 570.5Q532.4 570.3 531.8 570.3H530.9V572.4ZM530.9 573.9V577.0H528.8V568.8H532.0Q533.6 568.8 534.4 569.3Q535.2 569.9 535.2 571.0Q535.2 571.9 534.8 572.4Q534.4 572.9 533.6 573.1Q534.0 573.2 534.3 573.6Q534.7 573.9 535.0 574.7L536.2 577.0H533.9L532.9 575.0Q532.6 574.3 532.3 574.1Q532.0 573.9 531.5 573.9Z M540.1 568.8H545.8V570.4H542.2V571.9H545.6V573.5H542.2V575.4H545.9V577.0H540.1Z M562.3 569.0V570.8Q561.7 570.5 561.0 570.3Q560.4 570.2 559.8 570.2Q559.0 570.2 558.7 570.4Q558.3 570.6 558.3 571.0Q558.3 571.3 558.5 571.5Q558.8 571.7 559.4 571.8L560.3 572.0Q561.7 572.3 562.3 572.9Q562.9 573.4 562.9 574.5Q562.9 575.8 562.1 576.5Q561.3 577.2 559.6 577.2Q558.8 577.2 558.0 577.0Q557.2 576.9 556.4 576.6V574.8Q557.2 575.2 558.0 575.4Q558.7 575.6 559.4 575.6Q560.1 575.6 560.5 575.4Q560.8 575.2 560.8 574.7Q560.8 574.3 560.6 574.1Q560.3 573.9 559.6 573.8L558.7 573.6Q557.5 573.3 556.9 572.7Q556.4 572.2 556.4 571.2Q556.4 569.9 557.2 569.3Q558.0 568.6 559.5 568.6Q560.1 568.6 560.8 568.7Q561.6 568.8 562.3 569.0Z M566.4 568.8H573.9V570.4H571.2V577.0H569.1V570.4H566.4Z M577.6 568.8H579.8V573.7Q579.8 574.7 580.1 575.2Q580.4 575.6 581.2 575.6Q582.0 575.6 582.3 575.2Q582.6 574.7 582.6 573.7V568.8H584.7V573.7Q584.7 575.4 583.9 576.3Q583.0 577.2 581.2 577.2Q579.4 577.2 578.5 576.3Q577.6 575.4 577.6 573.7Z M591.5 570.4V575.4H592.3Q593.6 575.4 594.3 574.7Q595.0 574.1 595.0 572.9Q595.0 571.6 594.3 571.0Q593.6 570.4 592.3 570.4ZM589.4 568.8H591.7Q593.5 568.8 594.5 569.0Q595.4 569.3 596.0 569.9Q596.6 570.5 596.9 571.2Q597.2 572.0 597.2 572.9Q597.2 573.8 596.9 574.5Q596.6 575.3 596.0 575.8Q595.4 576.5 594.4 576.7Q593.5 577.0 591.7 577.0H589.4Z M601.4 568.8H603.5V577.0H601.4Z M612.0 570.2Q611.0 570.2 610.5 570.9Q609.9 571.6 609.9 572.9Q609.9 574.2 610.5 574.9Q611.0 575.6 612.0 575.6Q612.9 575.6 613.5 574.9Q614.0 574.2 614.0 572.9Q614.0 571.6 613.5 570.9Q612.9 570.2 612.0 570.2ZM612.0 568.6Q614.0 568.6 615.1 569.7Q616.2 570.9 616.2 572.9Q616.2 574.9 615.1 576.0Q614.0 577.2 612.0 577.2Q610.0 577.2 608.9 576.0Q607.7 574.9 607.7 572.9Q607.7 570.9 608.9 569.7Q610.0 568.6 612.0 568.6Z"/>
  </g>
</svg>
